<svg xmlns="http://www.w3.org/2000/svg" xmlns:xlink="http://www.w3.org/1999/xlink" width="420" zoomAndPan="magnify" viewBox="0 0 315 165.000002" height="220" preserveAspectRatio="xMidYMid meet" version="1.0"><defs><clipPath id="72e57646f1"><path d="M 17.347656 65.589844 L 33 65.589844 L 33 82 L 17.347656 82 Z M 17.347656 65.589844 " clip-rule="nonzero"/></clipPath><clipPath id="b3c99d1839"><path d="M 122 65.589844 L 127 65.589844 L 127 82 L 122 82 Z M 122 65.589844 " clip-rule="nonzero"/></clipPath><clipPath id="939fbc3532"><path d="M 179 65.589844 L 188 65.589844 L 188 82 L 179 82 Z M 179 65.589844 " clip-rule="nonzero"/></clipPath><clipPath id="70f6af878f"><path d="M 240 65.589844 L 244 65.589844 L 244 82 L 240 82 Z M 240 65.589844 " clip-rule="nonzero"/></clipPath><clipPath id="06ee418131"><path d="M 246 65.589844 L 250 65.589844 L 250 82 L 246 82 Z M 246 65.589844 " clip-rule="nonzero"/></clipPath><clipPath id="c9ae0b3e06"><path d="M 287 70 L 297.652344 70 L 297.652344 82 L 287 82 Z M 287 70 " clip-rule="nonzero"/></clipPath><clipPath id="899af693e5"><path d="M 291 87 L 297.652344 87 L 297.652344 95 L 291 95 Z M 291 87 " clip-rule="nonzero"/></clipPath></defs><g clip-path="url(#72e57646f1)"><path fill="#FFFFFF" d="M 17.363281 81.207031 L 23.171875 65.640625 L 27.222656 65.640625 L 32.871094 81.261719 L 29.089844 81.261719 L 28.023438 77.988281 L 22.214844 77.988281 L 21.148438 81.261719 L 17.363281 81.261719 Z M 22.90625 75.296875 L 27.117188 75.296875 L 25.304688 69.808594 C 25.304688 69.597656 25.25 69.386719 25.25 69.230469 C 25.199219 69.070312 25.199219 68.859375 25.199219 68.648438 L 25.144531 68.648438 C 25.089844 68.859375 25.089844 69.070312 24.984375 69.230469 C 24.933594 69.386719 24.933594 69.597656 24.824219 69.703125 Z M 22.90625 75.296875 " fill-opacity="1" fill-rule="nonzero"/></g><path fill="#FFFFFF" d="M 43.742188 71.445312 L 38.09375 78.832031 L 43.796875 78.832031 L 43.796875 81.3125 L 33.511719 81.3125 L 33.511719 79.941406 L 39.425781 72.34375 L 34.097656 72.34375 L 34.097656 69.863281 L 43.6875 69.863281 Z M 43.742188 71.445312 " fill-opacity="1" fill-rule="nonzero"/><path fill="#FFFFFF" d="M 56.691406 81.207031 L 53.386719 81.207031 L 53.386719 79.414062 L 53.335938 79.414062 C 52.90625 80.046875 52.375 80.628906 51.84375 80.890625 C 51.257812 81.261719 50.617188 81.367188 49.816406 81.367188 C 48.429688 81.367188 47.527344 80.945312 46.78125 80.152344 C 46.035156 79.359375 45.765625 78.148438 45.765625 76.566406 L 45.765625 69.703125 L 49.175781 69.703125 L 49.175781 76.300781 C 49.175781 77.144531 49.335938 77.777344 49.65625 78.253906 C 50.03125 78.675781 50.511719 78.886719 51.148438 78.886719 C 51.789062 78.886719 52.375 78.675781 52.746094 78.148438 C 53.175781 77.671875 53.335938 77.09375 53.335938 76.195312 L 53.335938 69.757812 L 56.636719 69.757812 L 56.636719 81.207031 Z M 56.691406 81.207031 " fill-opacity="1" fill-rule="nonzero"/><path fill="#FFFFFF" d="M 66.976562 72.660156 C 66.816406 72.554688 66.65625 72.554688 66.550781 72.554688 C 66.441406 72.554688 66.285156 72.554688 66.070312 72.554688 C 65.109375 72.554688 64.472656 72.816406 63.992188 73.398438 C 63.566406 73.980469 63.246094 74.769531 63.246094 75.824219 L 63.246094 81.3125 L 59.835938 81.3125 L 59.835938 69.917969 L 63.246094 69.917969 L 63.246094 72.078125 L 63.300781 72.078125 C 63.566406 71.289062 63.9375 70.707031 64.472656 70.339844 C 65.003906 69.96875 65.644531 69.757812 66.335938 69.757812 C 66.496094 69.757812 66.710938 69.757812 66.816406 69.757812 C 66.921875 69.757812 67.1875 69.808594 67.296875 69.808594 Z M 66.976562 72.660156 " fill-opacity="1" fill-rule="nonzero"/><path fill="#FFFFFF" d="M 79.394531 76.511719 L 71.828125 76.511719 C 71.878906 77.355469 72.199219 77.988281 72.679688 78.515625 C 73.160156 78.9375 73.90625 79.152344 74.863281 79.152344 C 75.238281 79.152344 75.664062 79.097656 76.25 78.886719 C 76.835938 78.675781 77.421875 78.410156 78.007812 77.9375 L 79.449219 79.890625 C 78.648438 80.46875 77.847656 80.890625 77.050781 81.15625 C 76.25 81.417969 75.292969 81.578125 74.386719 81.578125 C 72.574219 81.578125 71.132812 81.101562 70.121094 80.101562 C 69.109375 79.097656 68.628906 77.671875 68.628906 75.824219 C 68.628906 73.980469 69.109375 72.554688 70.230469 71.394531 C 71.347656 70.234375 72.679688 69.652344 74.332031 69.652344 C 75.929688 69.652344 77.210938 70.128906 78.167969 71.078125 C 79.128906 72.027344 79.609375 73.453125 79.609375 75.246094 L 79.609375 76.511719 Z M 76.304688 74.347656 C 76.304688 73.398438 76.144531 72.765625 75.824219 72.394531 C 75.449219 71.972656 74.972656 71.816406 74.226562 71.816406 C 73.640625 71.816406 73.054688 72.027344 72.625 72.554688 C 72.199219 72.976562 71.878906 73.609375 71.828125 74.402344 L 76.304688 74.402344 C 76.304688 74.453125 76.304688 74.347656 76.304688 74.347656 Z M 76.304688 74.347656 " fill-opacity="1" fill-rule="nonzero"/><path fill="#FFFFFF" d="M 86.53125 80.3125 L 87.8125 77.832031 C 88.558594 78.253906 89.199219 78.570312 89.785156 78.78125 C 90.371094 78.992188 90.957031 78.992188 91.542969 78.992188 C 92.339844 78.992188 92.929688 78.832031 93.355469 78.570312 C 93.726562 78.304688 93.941406 77.832031 93.941406 77.304688 C 93.941406 76.828125 93.78125 76.351562 93.460938 76.089844 C 93.195312 75.824219 92.609375 75.613281 91.703125 75.351562 C 90.050781 74.980469 88.878906 74.402344 88.183594 73.769531 C 87.4375 73.027344 87.121094 72.132812 87.121094 70.917969 C 87.121094 69.703125 87.597656 68.648438 88.558594 67.753906 C 89.515625 66.90625 90.847656 66.484375 92.609375 66.484375 C 93.355469 66.484375 94.046875 66.539062 94.6875 66.695312 C 95.433594 66.855469 96.070312 67.117188 96.710938 67.4375 L 95.484375 69.914062 C 94.898438 69.652344 94.417969 69.335938 93.886719 69.28125 C 93.40625 69.125 92.929688 69.070312 92.449219 69.070312 C 91.808594 69.070312 91.222656 69.230469 90.847656 69.492188 C 90.476562 69.757812 90.261719 70.125 90.261719 70.65625 C 90.261719 71.078125 90.421875 71.445312 90.742188 71.710938 C 91.117188 71.921875 91.703125 72.183594 92.609375 72.449219 C 94.207031 72.816406 95.378906 73.398438 96.019531 74.085938 C 96.765625 74.824219 97.085938 75.824219 97.085938 77.09375 C 97.085938 78.464844 96.605469 79.574219 95.644531 80.46875 C 94.6875 81.3125 93.246094 81.734375 91.4375 81.734375 C 90.636719 81.734375 89.785156 81.578125 88.929688 81.367188 C 88.078125 81.101562 87.277344 80.679688 86.53125 80.3125 Z M 86.53125 80.3125 " fill-opacity="1" fill-rule="nonzero"/><path fill="#FFFFFF" d="M 104.492188 81.523438 C 102.679688 81.523438 101.292969 81.050781 100.28125 80.046875 C 99.269531 79.042969 98.789062 77.671875 98.789062 75.984375 C 98.789062 74.191406 99.269531 72.816406 100.386719 71.816406 C 101.453125 70.8125 102.839844 70.339844 104.652344 70.339844 C 106.410156 70.339844 107.847656 70.8125 108.863281 71.816406 C 109.875 72.816406 110.351562 74.085938 110.351562 75.773438 C 110.351562 77.566406 109.875 78.9375 108.753906 79.941406 C 107.6875 80.890625 106.304688 81.523438 104.492188 81.523438 Z M 104.652344 79.148438 C 105.503906 79.148438 106.089844 78.886719 106.515625 78.304688 C 106.941406 77.726562 107.15625 76.933594 107.15625 75.878906 C 107.15625 74.875 106.941406 74.085938 106.515625 73.503906 C 106.089844 73.027344 105.449219 72.710938 104.652344 72.710938 C 103.851562 72.710938 103.210938 72.976562 102.679688 73.558594 C 102.253906 74.136719 101.933594 74.929688 101.933594 75.929688 C 101.933594 76.988281 102.148438 77.777344 102.574219 78.304688 C 103.050781 78.78125 103.746094 79.148438 104.652344 79.148438 Z M 104.652344 79.148438 " fill-opacity="1" fill-rule="nonzero"/><path fill="#FFFFFF" d="M 121.277344 80.574219 C 120.691406 80.945312 120.214844 81.15625 119.628906 81.3125 C 119.039062 81.472656 118.453125 81.523438 117.816406 81.523438 C 116.003906 81.523438 114.617188 81.050781 113.605469 80.046875 C 112.59375 79.042969 112.113281 77.777344 112.113281 76.195312 C 112.113281 74.402344 112.59375 72.976562 113.710938 71.921875 C 114.777344 70.867188 116.214844 70.339844 117.976562 70.339844 C 118.613281 70.339844 119.199219 70.390625 119.734375 70.550781 C 120.265625 70.707031 120.746094 70.917969 121.226562 71.183594 L 120.054688 73.242188 C 119.789062 73.027344 119.414062 72.976562 119.09375 72.871094 C 118.828125 72.816406 118.453125 72.710938 118.082031 72.710938 C 117.230469 72.710938 116.484375 72.976562 116.003906 73.558594 C 115.523438 74.136719 115.257812 74.929688 115.257812 75.929688 C 115.257812 76.933594 115.523438 77.726562 116.058594 78.199219 C 116.535156 78.78125 117.28125 79.042969 118.082031 79.042969 C 118.292969 79.042969 118.5625 78.992188 118.933594 78.886719 C 119.308594 78.78125 119.679688 78.621094 120 78.410156 Z M 121.277344 80.574219 " fill-opacity="1" fill-rule="nonzero"/><g clip-path="url(#b3c99d1839)"><path fill="#FFFFFF" d="M 124.796875 69.125 C 124.207031 69.125 123.78125 68.964844 123.410156 68.648438 C 123.035156 68.28125 122.929688 67.910156 122.929688 67.4375 C 122.929688 66.960938 123.089844 66.484375 123.410156 66.222656 C 123.730469 65.957031 124.207031 65.746094 124.796875 65.746094 C 125.378906 65.746094 125.808594 65.90625 126.179688 66.222656 C 126.554688 66.484375 126.660156 66.960938 126.660156 67.4375 C 126.660156 67.910156 126.5 68.386719 126.179688 68.648438 C 125.808594 68.964844 125.378906 69.125 124.796875 69.125 Z M 126.339844 81.207031 L 123.25 81.207031 L 123.25 70.550781 L 126.339844 70.550781 Z M 126.339844 81.207031 " fill-opacity="1" fill-rule="nonzero"/></g><path fill="#FFFFFF" d="M 139.023438 76.777344 L 131.933594 76.777344 C 131.988281 77.566406 132.203125 78.199219 132.734375 78.621094 C 133.214844 79.042969 133.90625 79.253906 134.757812 79.253906 C 135.027344 79.253906 135.503906 79.203125 136.039062 78.992188 C 136.625 78.78125 137.105469 78.570312 137.636719 78.148438 L 139.023438 79.941406 C 138.277344 80.523438 137.582031 80.890625 136.785156 81.15625 C 135.984375 81.417969 135.1875 81.523438 134.28125 81.523438 C 132.519531 81.523438 131.242188 81.050781 130.285156 80.101562 C 129.324219 79.148438 128.84375 77.832031 128.84375 76.089844 C 128.84375 74.347656 129.324219 73.027344 130.335938 71.921875 C 131.347656 70.867188 132.628906 70.339844 134.171875 70.339844 C 135.71875 70.339844 136.835938 70.761719 137.691406 71.710938 C 138.542969 72.660156 138.96875 73.875 138.96875 75.5625 L 138.96875 76.777344 Z M 136.144531 74.875 C 136.144531 74.03125 135.984375 73.453125 135.664062 73.082031 C 135.292969 72.710938 134.867188 72.5 134.226562 72.5 C 133.640625 72.5 133.160156 72.710938 132.789062 73.132812 C 132.363281 73.558594 132.148438 74.136719 132.042969 74.875 Z M 136.144531 74.875 " fill-opacity="1" fill-rule="nonzero"/><path fill="#FFFFFF" d="M 147.816406 81.101562 C 147.441406 81.261719 147.070312 81.3125 146.75 81.367188 C 146.375 81.417969 145.949219 81.417969 145.523438 81.417969 C 144.351562 81.417969 143.5 81.15625 142.914062 80.574219 C 142.328125 79.996094 142.0625 79.203125 142.0625 78.09375 L 142.0625 72.816406 L 140.300781 72.816406 L 140.300781 70.550781 L 142.0625 70.550781 L 142.0625 68.28125 L 145.152344 67.332031 L 145.152344 70.601562 L 147.601562 70.601562 L 147.601562 72.871094 L 145.152344 72.871094 L 145.152344 77.9375 C 145.152344 78.359375 145.203125 78.675781 145.417969 78.886719 C 145.578125 79.097656 145.84375 79.148438 146.214844 79.148438 C 146.429688 79.148438 146.589844 79.148438 146.695312 79.097656 C 146.855469 79.042969 146.964844 79.042969 147.175781 78.9375 Z M 147.816406 81.101562 " fill-opacity="1" fill-rule="nonzero"/><path fill="#FFFFFF" d="M 159.804688 70.550781 L 154.957031 83.160156 C 154.582031 84.109375 153.996094 84.902344 153.304688 85.378906 C 152.558594 85.851562 151.707031 86.167969 150.695312 86.167969 C 150.320312 86.167969 150.054688 86.167969 149.734375 86.117188 C 149.46875 86.0625 149.148438 86.0625 148.882812 85.957031 L 149.46875 83.6875 C 149.628906 83.742188 149.839844 83.847656 149.949219 83.847656 C 150.054688 83.847656 150.320312 83.898438 150.425781 83.898438 C 150.800781 83.898438 151.066406 83.847656 151.386719 83.636719 C 151.652344 83.476562 151.867188 83.214844 152.027344 82.84375 L 152.773438 81.261719 L 148.457031 70.601562 L 151.917969 70.601562 L 153.996094 77.25 C 154.050781 77.460938 154.15625 77.621094 154.15625 77.882812 C 154.210938 78.09375 154.210938 78.359375 154.316406 78.621094 L 154.371094 78.621094 C 154.371094 78.410156 154.421875 78.199219 154.53125 77.988281 C 154.582031 77.777344 154.691406 77.566406 154.742188 77.25 L 156.929688 70.496094 L 159.804688 70.496094 Z M 159.804688 70.550781 " fill-opacity="1" fill-rule="nonzero"/><path fill="#FFFFFF" d="M 172.222656 81.523438 C 170.410156 81.523438 169.027344 81.050781 168.015625 80.046875 C 167 79.042969 166.523438 77.671875 166.523438 75.984375 C 166.523438 74.191406 167 72.816406 168.121094 71.816406 C 169.238281 70.8125 170.570312 70.339844 172.382812 70.339844 C 174.140625 70.339844 175.582031 70.8125 176.59375 71.816406 C 177.605469 72.816406 178.085938 74.085938 178.085938 75.773438 C 178.085938 77.566406 177.605469 78.9375 176.488281 79.941406 C 175.472656 80.996094 174.035156 81.523438 172.222656 81.523438 Z M 172.382812 79.148438 C 173.234375 79.148438 173.820312 78.886719 174.25 78.304688 C 174.675781 77.726562 174.886719 76.933594 174.886719 75.878906 C 174.886719 74.875 174.675781 74.085938 174.25 73.503906 C 173.820312 73.027344 173.183594 72.710938 172.382812 72.710938 C 171.585938 72.710938 170.945312 72.976562 170.410156 73.558594 C 169.984375 74.136719 169.664062 74.929688 169.664062 75.929688 C 169.664062 76.988281 169.878906 77.777344 170.304688 78.304688 C 170.835938 78.886719 171.53125 79.148438 172.382812 79.148438 Z M 172.382812 79.148438 " fill-opacity="1" fill-rule="nonzero"/><g clip-path="url(#939fbc3532)"><path fill="#FFFFFF" d="M 186.929688 68.121094 C 186.71875 68.070312 186.558594 67.964844 186.449219 67.910156 C 186.289062 67.859375 186.078125 67.859375 185.96875 67.859375 C 185.542969 67.859375 185.171875 68.015625 184.90625 68.28125 C 184.691406 68.542969 184.53125 68.914062 184.53125 69.441406 L 184.53125 70.601562 L 186.984375 70.601562 L 186.984375 72.871094 L 184.53125 72.871094 L 184.53125 81.261719 L 181.441406 81.261719 L 181.441406 72.871094 L 179.628906 72.871094 L 179.628906 70.601562 L 181.441406 70.601562 L 181.441406 69.335938 C 181.441406 68.175781 181.816406 67.277344 182.613281 66.589844 C 183.414062 65.851562 184.425781 65.589844 185.652344 65.589844 C 186.078125 65.589844 186.503906 65.589844 186.824219 65.640625 C 187.089844 65.695312 187.460938 65.800781 187.835938 65.851562 Z M 186.929688 68.121094 " fill-opacity="1" fill-rule="nonzero"/></g><path fill="#FFFFFF" d="M 203.609375 81.207031 L 194.871094 81.207031 L 194.871094 66.695312 L 203.234375 66.695312 L 203.234375 69.28125 L 198.066406 69.28125 L 198.066406 72.660156 L 202.917969 72.660156 L 202.917969 75.191406 L 198.066406 75.191406 L 198.066406 78.621094 L 203.609375 78.621094 Z M 203.609375 81.207031 " fill-opacity="1" fill-rule="nonzero"/><path fill="#FFFFFF" d="M 216.027344 70.550781 L 212.507812 75.773438 L 216.027344 81.207031 L 212.457031 81.207031 L 210.859375 78.253906 C 210.804688 78.09375 210.699219 77.988281 210.644531 77.832031 C 210.589844 77.671875 210.484375 77.460938 210.429688 77.25 L 210.324219 77.25 C 210.273438 77.410156 210.164062 77.515625 210.113281 77.671875 C 210.058594 77.832031 209.953125 77.9375 209.84375 78.148438 L 208.246094 81.101562 L 204.621094 81.101562 L 208.246094 75.824219 L 204.835938 70.445312 L 208.460938 70.445312 L 210.058594 73.503906 C 210.113281 73.714844 210.273438 73.875 210.324219 73.980469 C 210.378906 74.136719 210.484375 74.242188 210.484375 74.402344 L 210.539062 74.402344 C 210.589844 74.242188 210.699219 74.03125 210.75 73.925781 C 210.804688 73.769531 210.910156 73.558594 210.964844 73.453125 L 212.617188 70.445312 Z M 216.027344 70.550781 " fill-opacity="1" fill-rule="nonzero"/><path fill="#FFFFFF" d="M 226.363281 80.574219 C 225.777344 80.945312 225.296875 81.15625 224.710938 81.3125 C 224.125 81.472656 223.539062 81.523438 222.898438 81.523438 C 221.089844 81.523438 219.703125 81.050781 218.691406 80.046875 C 217.679688 79.042969 217.199219 77.777344 217.199219 76.195312 C 217.199219 74.402344 217.679688 72.976562 218.796875 71.921875 C 219.917969 70.867188 221.300781 70.339844 223.058594 70.339844 C 223.699219 70.339844 224.285156 70.390625 224.820312 70.550781 C 225.296875 70.707031 225.832031 70.917969 226.3125 71.183594 L 225.136719 73.242188 C 224.871094 73.027344 224.5 72.976562 224.179688 72.871094 C 223.914062 72.816406 223.539062 72.710938 223.167969 72.710938 C 222.3125 72.710938 221.566406 72.976562 221.089844 73.558594 C 220.609375 74.136719 220.34375 74.929688 220.34375 75.929688 C 220.34375 76.933594 220.609375 77.726562 221.140625 78.199219 C 221.621094 78.78125 222.367188 79.042969 223.167969 79.042969 C 223.378906 79.042969 223.644531 78.992188 224.019531 78.886719 C 224.390625 78.832031 224.765625 78.621094 225.085938 78.410156 Z M 226.363281 80.574219 " fill-opacity="1" fill-rule="nonzero"/><path fill="#FFFFFF" d="M 237.875 76.777344 L 230.789062 76.777344 C 230.839844 77.566406 231.054688 78.199219 231.585938 78.621094 C 232.066406 79.042969 232.757812 79.253906 233.613281 79.253906 C 233.878906 79.253906 234.359375 79.203125 234.890625 78.992188 C 235.476562 78.78125 235.957031 78.570312 236.488281 78.148438 L 237.875 79.941406 C 237.128906 80.523438 236.4375 80.890625 235.636719 81.15625 C 234.835938 81.417969 234.039062 81.523438 233.132812 81.523438 C 231.375 81.523438 230.09375 81.050781 229.136719 80.101562 C 228.175781 79.148438 227.695312 77.832031 227.695312 76.089844 C 227.695312 74.347656 228.175781 73.027344 229.1875 71.921875 C 230.203125 70.8125 231.480469 70.339844 233.027344 70.339844 C 234.519531 70.339844 235.691406 70.761719 236.542969 71.710938 C 237.394531 72.554688 237.820312 73.875 237.820312 75.5625 Z M 234.996094 74.875 C 234.996094 74.03125 234.835938 73.453125 234.519531 73.082031 C 234.144531 72.710938 233.71875 72.5 233.078125 72.5 C 232.492188 72.5 232.011719 72.710938 231.640625 73.132812 C 231.214844 73.558594 231 74.136719 230.894531 74.875 Z M 234.996094 74.875 " fill-opacity="1" fill-rule="nonzero"/><g clip-path="url(#70f6af878f)"><path fill="#FFFFFF" d="M 240.058594 81.207031 L 240.058594 65.851562 L 243.148438 65.851562 L 243.148438 81.261719 L 240.058594 81.261719 Z M 240.058594 81.207031 " fill-opacity="1" fill-rule="nonzero"/></g><g clip-path="url(#06ee418131)"><path fill="#FFFFFF" d="M 246.1875 81.207031 L 246.1875 65.851562 L 249.277344 65.851562 L 249.277344 81.261719 L 246.1875 81.261719 Z M 246.1875 81.207031 " fill-opacity="1" fill-rule="nonzero"/></g><path fill="#FFFFFF" d="M 261.90625 76.777344 L 254.820312 76.777344 C 254.875 77.566406 255.085938 78.199219 255.621094 78.621094 C 256.152344 79.042969 256.792969 79.253906 257.644531 79.253906 C 257.910156 79.253906 258.390625 79.203125 258.921875 78.992188 C 259.511719 78.78125 259.988281 78.570312 260.523438 78.148438 L 261.90625 79.941406 C 261.164062 80.523438 260.46875 80.890625 259.671875 81.15625 C 258.871094 81.417969 258.070312 81.523438 257.164062 81.523438 C 255.40625 81.523438 254.128906 81.050781 253.167969 80.101562 C 252.210938 79.148438 251.730469 77.832031 251.730469 76.089844 C 251.730469 74.347656 252.210938 73.027344 253.222656 71.921875 C 254.234375 70.8125 255.511719 70.339844 257.058594 70.339844 C 258.550781 70.339844 259.722656 70.761719 260.574219 71.710938 C 261.429688 72.554688 261.855469 73.875 261.855469 75.5625 Z M 258.976562 74.875 C 258.976562 74.03125 258.816406 73.453125 258.496094 73.082031 C 258.125 72.710938 257.699219 72.5 257.058594 72.5 C 256.472656 72.5 255.992188 72.710938 255.621094 73.132812 C 255.191406 73.558594 254.980469 74.136719 254.875 74.875 Z M 258.976562 74.875 " fill-opacity="1" fill-rule="nonzero"/><path fill="#FFFFFF" d="M 274.324219 81.207031 L 271.234375 81.207031 L 271.234375 75.296875 C 271.234375 74.453125 271.074219 73.820312 270.808594 73.347656 C 270.539062 72.921875 270.007812 72.710938 269.421875 72.710938 C 268.835938 72.710938 268.355469 72.921875 267.929688 73.453125 C 267.554688 73.875 267.34375 74.507812 267.34375 75.246094 L 267.34375 81.3125 L 264.253906 81.3125 L 264.253906 70.550781 L 267.34375 70.550781 L 267.34375 72.289062 L 267.394531 72.289062 C 267.769531 71.65625 268.25 71.128906 268.835938 70.8125 C 269.421875 70.445312 270.0625 70.339844 270.859375 70.339844 C 272.03125 70.339844 272.9375 70.707031 273.523438 71.394531 C 274.109375 72.132812 274.378906 73.242188 274.378906 74.664062 L 274.378906 81.261719 L 274.324219 81.261719 Z M 274.324219 81.207031 " fill-opacity="1" fill-rule="nonzero"/><path fill="#FFFFFF" d="M 285.726562 80.574219 C 285.144531 80.945312 284.664062 81.15625 284.078125 81.3125 C 283.492188 81.472656 282.902344 81.523438 282.265625 81.523438 C 280.453125 81.523438 279.066406 81.050781 278.054688 80.046875 C 277.042969 79.042969 276.5625 77.777344 276.5625 76.195312 C 276.5625 74.402344 277.042969 72.976562 278.160156 71.921875 C 279.28125 70.867188 280.664062 70.339844 282.425781 70.339844 C 283.0625 70.339844 283.652344 70.390625 284.183594 70.550781 C 284.664062 70.707031 285.195312 70.917969 285.675781 71.183594 L 284.503906 73.242188 C 284.234375 73.027344 283.863281 72.976562 283.542969 72.871094 C 283.277344 72.816406 282.902344 72.710938 282.53125 72.710938 C 281.679688 72.710938 280.933594 72.976562 280.453125 73.558594 C 279.972656 74.136719 279.707031 74.929688 279.707031 75.929688 C 279.707031 76.933594 279.972656 77.726562 280.507812 78.199219 C 280.984375 78.78125 281.730469 79.042969 282.53125 79.042969 C 282.742188 79.042969 283.011719 78.992188 283.382812 78.886719 C 283.757812 78.78125 284.128906 78.621094 284.449219 78.410156 Z M 285.726562 80.574219 " fill-opacity="1" fill-rule="nonzero"/><g clip-path="url(#c9ae0b3e06)"><path fill="#FFFFFF" d="M 297.238281 76.777344 L 290.152344 76.777344 C 290.203125 77.566406 290.417969 78.199219 290.949219 78.621094 C 291.484375 79.042969 292.121094 79.253906 292.976562 79.253906 C 293.242188 79.253906 293.722656 79.203125 294.253906 78.992188 C 294.839844 78.78125 295.320312 78.570312 295.851562 78.148438 L 297.238281 79.941406 C 296.492188 80.523438 295.800781 80.890625 295 81.15625 C 294.203125 81.417969 293.402344 81.523438 292.496094 81.523438 C 290.738281 81.523438 289.457031 81.050781 288.5 80.101562 C 287.539062 79.148438 287.0625 77.832031 287.0625 76.089844 C 287.0625 74.347656 287.539062 73.027344 288.550781 71.921875 C 289.566406 70.867188 290.84375 70.339844 292.390625 70.339844 C 293.882812 70.339844 295.054688 70.761719 295.90625 71.710938 C 296.757812 72.554688 297.183594 73.875 297.183594 75.5625 L 297.183594 76.777344 Z M 294.359375 74.875 C 294.359375 74.03125 294.203125 73.453125 293.882812 73.082031 C 293.507812 72.710938 293.082031 72.5 292.441406 72.5 C 291.855469 72.5 291.375 72.710938 291.003906 73.132812 C 290.578125 73.558594 290.363281 74.136719 290.257812 74.875 Z M 294.359375 74.875 " fill-opacity="1" fill-rule="nonzero"/></g><path fill="#FFFFFF" d="M 196.09375 92.183594 L 196.09375 94.929688 L 194.816406 94.929688 L 194.816406 87.011719 L 197.269531 87.011719 C 198.226562 87.011719 198.867188 87.222656 199.347656 87.644531 C 199.824219 88.066406 200.09375 88.648438 200.09375 89.492188 C 200.09375 90.285156 199.824219 90.917969 199.292969 91.445312 C 198.761719 91.972656 198.015625 92.183594 197.109375 92.183594 Z M 196.09375 88.171875 L 196.09375 91.179688 L 196.949219 91.179688 C 197.535156 91.179688 197.960938 91.023438 198.226562 90.8125 C 198.496094 90.546875 198.65625 90.179688 198.65625 89.652344 C 198.65625 89.175781 198.496094 88.808594 198.226562 88.597656 C 197.960938 88.386719 197.480469 88.226562 197.003906 88.226562 L 196.042969 88.226562 Z M 196.09375 88.171875 " fill-opacity="1" fill-rule="nonzero"/><path fill="#FFFFFF" d="M 203.769531 95.035156 C 202.917969 95.035156 202.171875 94.769531 201.691406 94.242188 C 201.214844 93.765625 200.894531 93.027344 200.894531 92.183594 C 200.894531 91.234375 201.160156 90.546875 201.691406 89.96875 C 202.226562 89.386719 202.917969 89.175781 203.875 89.175781 C 204.730469 89.175781 205.476562 89.441406 205.957031 89.96875 C 206.433594 90.441406 206.703125 91.179688 206.703125 92.027344 C 206.703125 92.976562 206.433594 93.660156 205.902344 94.1875 C 205.367188 94.664062 204.675781 95.035156 203.769531 95.035156 Z M 203.824219 94.03125 C 204.304688 94.03125 204.675781 93.871094 204.996094 93.554688 C 205.261719 93.1875 205.421875 92.765625 205.421875 92.132812 C 205.421875 91.5 205.261719 91.074219 204.996094 90.707031 C 204.730469 90.335938 204.355469 90.230469 203.824219 90.230469 C 203.34375 90.230469 202.972656 90.390625 202.652344 90.707031 C 202.382812 91.074219 202.226562 91.5 202.226562 92.132812 C 202.226562 92.765625 202.382812 93.1875 202.652344 93.554688 C 202.972656 93.925781 203.34375 94.03125 203.824219 94.03125 Z M 203.824219 94.03125 " fill-opacity="1" fill-rule="nonzero"/><path fill="#FFFFFF" d="M 215.597656 89.335938 L 213.945312 94.929688 L 212.5625 94.929688 L 211.550781 91.179688 C 211.550781 91.128906 211.496094 90.96875 211.496094 90.917969 C 211.496094 90.863281 211.496094 90.707031 211.496094 90.652344 C 211.496094 90.8125 211.496094 90.863281 211.441406 90.917969 C 211.441406 90.96875 211.390625 91.128906 211.390625 91.179688 L 210.324219 94.929688 L 209.042969 94.929688 L 207.390625 89.335938 L 208.671875 89.335938 L 209.683594 93.292969 C 209.683594 93.34375 209.683594 93.449219 209.738281 93.503906 C 209.738281 93.554688 209.738281 93.714844 209.738281 93.765625 L 209.789062 93.765625 C 209.789062 93.714844 209.789062 93.554688 209.789062 93.503906 C 209.789062 93.449219 209.84375 93.292969 209.84375 93.238281 L 211.015625 89.28125 L 212.242188 89.28125 L 213.253906 93.238281 C 213.253906 93.292969 213.253906 93.398438 213.308594 93.449219 C 213.308594 93.503906 213.308594 93.660156 213.363281 93.820312 L 213.414062 93.820312 C 213.414062 93.765625 213.414062 93.660156 213.414062 93.554688 C 213.414062 93.503906 213.414062 93.34375 213.46875 93.292969 L 214.425781 89.335938 Z M 215.597656 89.335938 " fill-opacity="1" fill-rule="nonzero"/><path fill="#FFFFFF" d="M 221.410156 92.449219 L 217.570312 92.449219 C 217.570312 92.921875 217.730469 93.398438 218 93.660156 C 218.265625 93.925781 218.742188 94.082031 219.222656 94.082031 C 219.4375 94.082031 219.648438 94.03125 219.96875 93.925781 C 220.289062 93.820312 220.449219 93.714844 220.769531 93.503906 L 221.355469 94.292969 C 220.980469 94.558594 220.609375 94.71875 220.289062 94.875 C 219.917969 95.035156 219.542969 95.035156 219.0625 95.035156 C 218.210938 95.035156 217.464844 94.824219 217.039062 94.242188 C 216.613281 93.660156 216.292969 93.027344 216.292969 92.183594 C 216.292969 91.234375 216.558594 90.546875 217.089844 90.019531 C 217.570312 89.441406 218.265625 89.175781 219.0625 89.175781 C 219.808594 89.175781 220.449219 89.386719 220.875 89.914062 C 221.300781 90.390625 221.515625 91.074219 221.515625 91.921875 L 221.515625 92.5 L 221.410156 92.5 Z M 220.183594 91.605469 C 220.183594 91.128906 220.128906 90.757812 219.917969 90.546875 C 219.703125 90.335938 219.4375 90.179688 219.0625 90.179688 C 218.691406 90.179688 218.425781 90.335938 218.105469 90.546875 C 217.839844 90.8125 217.679688 91.179688 217.625 91.605469 Z M 220.183594 91.605469 " fill-opacity="1" fill-rule="nonzero"/><path fill="#FFFFFF" d="M 225.722656 90.390625 C 225.671875 90.390625 225.566406 90.390625 225.511719 90.335938 C 225.457031 90.335938 225.351562 90.335938 225.296875 90.335938 C 224.871094 90.335938 224.5 90.496094 224.230469 90.8125 C 224.019531 91.179688 223.859375 91.605469 223.859375 92.078125 L 223.859375 94.875 L 222.632812 94.875 L 222.632812 89.335938 L 223.914062 89.335938 L 223.914062 90.390625 C 224.074219 90.019531 224.285156 89.757812 224.5 89.546875 C 224.765625 89.335938 225.085938 89.28125 225.457031 89.28125 C 225.511719 89.28125 225.671875 89.28125 225.722656 89.28125 C 225.777344 89.28125 225.882812 89.28125 225.9375 89.335938 Z M 225.722656 90.390625 " fill-opacity="1" fill-rule="nonzero"/><path fill="#FFFFFF" d="M 231.585938 92.449219 L 227.75 92.449219 C 227.75 92.921875 227.910156 93.398438 228.175781 93.660156 C 228.441406 93.925781 228.921875 94.082031 229.402344 94.082031 C 229.617188 94.082031 229.828125 94.03125 230.148438 93.925781 C 230.46875 93.820312 230.628906 93.714844 230.949219 93.503906 L 231.535156 94.292969 C 231.160156 94.558594 230.789062 94.71875 230.46875 94.875 C 230.09375 95.035156 229.722656 95.035156 229.242188 95.035156 C 228.390625 95.035156 227.644531 94.824219 227.21875 94.242188 C 226.789062 93.660156 226.472656 93.027344 226.472656 92.183594 C 226.472656 91.234375 226.738281 90.546875 227.269531 90.019531 C 227.75 89.441406 228.441406 89.175781 229.242188 89.175781 C 229.988281 89.175781 230.628906 89.386719 231.054688 89.914062 C 231.480469 90.441406 231.695312 91.074219 231.695312 91.921875 L 231.695312 92.5 L 231.585938 92.5 Z M 230.359375 91.605469 C 230.359375 91.128906 230.308594 90.757812 230.09375 90.546875 C 229.882812 90.335938 229.617188 90.179688 229.242188 90.179688 C 228.867188 90.179688 228.601562 90.335938 228.28125 90.546875 C 228.015625 90.8125 227.855469 91.179688 227.804688 91.605469 Z M 230.359375 91.605469 " fill-opacity="1" fill-rule="nonzero"/><path fill="#FFFFFF" d="M 236.648438 94.03125 C 236.4375 94.398438 236.222656 94.613281 235.847656 94.824219 C 235.582031 94.980469 235.210938 95.035156 234.785156 95.035156 C 234.039062 95.035156 233.503906 94.824219 233.023438 94.292969 C 232.597656 93.820312 232.386719 93.082031 232.386719 92.238281 C 232.386719 91.289062 232.597656 90.601562 233.132812 90.019531 C 233.613281 89.441406 234.199219 89.175781 234.996094 89.175781 C 235.371094 89.175781 235.742188 89.230469 235.957031 89.386719 C 236.222656 89.546875 236.4375 89.757812 236.59375 90.019531 L 236.59375 86.589844 L 237.875 86.589844 L 237.875 94.875 L 236.59375 94.875 Z M 233.773438 92.183594 C 233.773438 92.765625 233.929688 93.1875 234.144531 93.554688 C 234.410156 93.925781 234.785156 94.03125 235.210938 94.03125 C 235.636719 94.03125 236.007812 93.871094 236.277344 93.554688 C 236.542969 93.1875 236.703125 92.816406 236.703125 92.289062 L 236.703125 91.65625 C 236.703125 91.234375 236.542969 90.863281 236.328125 90.601562 C 236.0625 90.335938 235.742188 90.179688 235.316406 90.179688 C 234.835938 90.179688 234.464844 90.335938 234.144531 90.652344 C 233.878906 91.128906 233.773438 91.605469 233.773438 92.183594 Z M 233.773438 92.183594 " fill-opacity="1" fill-rule="nonzero"/><path fill="#FFFFFF" d="M 244.003906 94.242188 L 244.003906 94.980469 L 242.722656 94.980469 L 242.722656 86.695312 L 244.003906 86.695312 L 244.003906 90.285156 C 244.214844 89.914062 244.480469 89.652344 244.800781 89.492188 C 245.121094 89.335938 245.441406 89.230469 245.867188 89.230469 C 246.613281 89.230469 247.148438 89.441406 247.625 89.96875 C 248.105469 90.496094 248.210938 91.128906 248.210938 91.972656 C 248.210938 92.921875 248 93.714844 247.46875 94.1875 C 247.039062 94.769531 246.402344 95.035156 245.601562 95.035156 C 245.230469 95.035156 244.960938 94.980469 244.640625 94.824219 C 244.480469 94.769531 244.214844 94.558594 244.003906 94.242188 Z M 244.003906 91.921875 L 244.003906 92.605469 C 244.003906 93.027344 244.164062 93.398438 244.375 93.660156 C 244.640625 93.925781 244.960938 94.082031 245.390625 94.082031 C 245.867188 94.082031 246.242188 93.871094 246.558594 93.503906 C 246.828125 93.132812 246.988281 92.660156 246.988281 92.027344 C 246.988281 91.445312 246.828125 91.023438 246.613281 90.757812 C 246.402344 90.496094 246.027344 90.285156 245.601562 90.285156 C 245.175781 90.285156 244.800781 90.441406 244.535156 90.757812 C 244.164062 91.023438 244.003906 91.394531 244.003906 91.921875 Z M 244.003906 91.921875 " fill-opacity="1" fill-rule="nonzero"/><path fill="#FFFFFF" d="M 254.449219 89.335938 L 251.835938 95.984375 C 251.621094 96.457031 251.355469 96.933594 251.039062 97.144531 C 250.71875 97.355469 250.238281 97.566406 249.8125 97.566406 C 249.652344 97.566406 249.546875 97.566406 249.4375 97.566406 C 249.332031 97.566406 249.226562 97.515625 249.066406 97.515625 L 249.277344 96.511719 C 249.332031 96.511719 249.4375 96.5625 249.492188 96.5625 C 249.546875 96.5625 249.652344 96.5625 249.703125 96.5625 C 249.917969 96.5625 250.078125 96.511719 250.183594 96.40625 C 250.34375 96.351562 250.449219 96.140625 250.558594 95.929688 L 250.984375 94.929688 L 248.746094 89.335938 L 250.183594 89.335938 L 251.464844 93.1875 C 251.464844 93.238281 251.515625 93.34375 251.515625 93.398438 C 251.515625 93.449219 251.570312 93.609375 251.570312 93.765625 C 251.570312 93.714844 251.570312 93.609375 251.621094 93.554688 C 251.621094 93.503906 251.675781 93.34375 251.675781 93.292969 L 253.0625 89.335938 C 253.222656 89.335938 254.449219 89.335938 254.449219 89.335938 Z M 254.449219 89.335938 " fill-opacity="1" fill-rule="nonzero"/><path fill="#FFFFFF" d="M 258.65625 87.011719 L 259.9375 87.011719 L 259.9375 94.929688 L 258.65625 94.929688 Z M 258.65625 87.011719 " fill-opacity="1" fill-rule="nonzero"/><path fill="#FFFFFF" d="M 261.90625 94.929688 L 261.90625 87.011719 L 264.359375 87.011719 C 265.746094 87.011719 266.8125 87.277344 267.554688 87.960938 C 268.304688 88.597656 268.621094 89.546875 268.621094 90.8125 C 268.621094 92.027344 268.25 93.027344 267.449219 93.765625 C 266.652344 94.507812 265.636719 94.824219 264.359375 94.824219 L 261.90625 94.824219 Z M 263.1875 88.171875 L 263.1875 93.820312 L 264.253906 93.820312 C 265.210938 93.820312 265.902344 93.554688 266.4375 93.027344 C 266.917969 92.554688 267.238281 91.816406 267.238281 90.863281 C 267.238281 90.019531 267.023438 89.28125 266.492188 88.859375 C 266.011719 88.386719 265.265625 88.121094 264.304688 88.121094 C 264.359375 88.171875 263.1875 88.171875 263.1875 88.171875 Z M 263.1875 88.171875 " fill-opacity="1" fill-rule="nonzero"/><path fill="#FFFFFF" d="M 269.476562 92.765625 C 269.476562 92.34375 269.636719 91.972656 269.847656 91.550781 C 270.0625 91.179688 270.433594 90.917969 270.914062 90.707031 C 270.539062 90.496094 270.273438 90.285156 270.113281 89.96875 C 269.953125 89.703125 269.847656 89.335938 269.847656 88.964844 C 269.847656 88.382812 270.0625 87.910156 270.488281 87.539062 C 270.914062 87.171875 271.5 86.960938 272.140625 86.960938 C 272.78125 86.960938 273.367188 87.171875 273.792969 87.539062 C 274.21875 87.910156 274.429688 88.382812 274.429688 88.964844 C 274.429688 89.335938 274.378906 89.703125 274.164062 89.96875 C 273.953125 90.230469 273.683594 90.546875 273.3125 90.707031 C 273.738281 90.863281 274.109375 91.128906 274.378906 91.550781 C 274.589844 91.921875 274.75 92.34375 274.75 92.765625 C 274.75 93.398438 274.539062 93.976562 274.003906 94.398438 C 273.523438 94.824219 272.832031 95.035156 272.03125 95.035156 C 271.234375 95.035156 270.59375 94.824219 270.0625 94.398438 C 269.742188 93.976562 269.476562 93.449219 269.476562 92.765625 Z M 270.753906 92.660156 C 270.753906 93.082031 270.914062 93.449219 271.128906 93.660156 C 271.394531 93.871094 271.714844 94.03125 272.140625 94.03125 C 272.566406 94.03125 272.886719 93.871094 273.152344 93.660156 C 273.417969 93.398438 273.578125 93.082031 273.578125 92.660156 C 273.578125 92.289062 273.417969 91.921875 273.207031 91.65625 C 272.9375 91.390625 272.621094 91.234375 272.191406 91.234375 C 271.765625 91.234375 271.449219 91.390625 271.179688 91.65625 C 270.914062 91.972656 270.753906 92.238281 270.753906 92.660156 Z M 270.96875 89.125 C 270.96875 89.492188 271.128906 89.757812 271.339844 89.96875 C 271.554688 90.179688 271.820312 90.335938 272.140625 90.335938 C 272.460938 90.335938 272.726562 90.179688 272.9375 89.96875 C 273.152344 89.757812 273.3125 89.492188 273.3125 89.125 C 273.3125 88.753906 273.152344 88.488281 272.9375 88.277344 C 272.726562 88.066406 272.460938 87.910156 272.140625 87.910156 C 271.765625 87.910156 271.5 88.066406 271.289062 88.277344 C 271.074219 88.4375 270.96875 88.753906 270.96875 89.125 Z M 270.96875 89.125 " fill-opacity="1" fill-rule="nonzero"/><path fill="#FFFFFF" d="M 283.011719 94.929688 L 281.570312 94.929688 L 277.894531 89.28125 C 277.839844 89.125 277.734375 89.070312 277.679688 89.019531 C 277.628906 88.964844 277.628906 88.859375 277.523438 88.753906 C 277.523438 88.914062 277.523438 89.019531 277.523438 89.175781 C 277.523438 89.386719 277.523438 89.597656 277.523438 89.914062 L 277.523438 94.980469 L 276.242188 94.980469 L 276.242188 87.011719 L 277.734375 87.011719 L 281.359375 92.5 C 281.414062 92.660156 281.519531 92.710938 281.570312 92.765625 C 281.625 92.816406 281.730469 92.976562 281.730469 93.027344 C 281.730469 92.976562 281.730469 92.765625 281.679688 92.605469 C 281.679688 92.394531 281.679688 92.183594 281.679688 91.867188 L 281.679688 86.855469 L 282.957031 86.855469 L 282.957031 94.824219 L 283.011719 94.824219 Z M 283.011719 94.929688 " fill-opacity="1" fill-rule="nonzero"/><path fill="#FFFFFF" d="M 290.898438 94.929688 L 289.296875 94.929688 L 287.699219 92.132812 C 287.699219 92.078125 287.648438 91.972656 287.648438 91.921875 C 287.648438 91.867188 287.59375 91.761719 287.59375 91.65625 C 287.59375 91.710938 287.539062 91.816406 287.539062 91.867188 C 287.539062 91.921875 287.488281 92.027344 287.378906 92.132812 L 285.726562 94.929688 L 284.128906 94.929688 L 286.742188 90.96875 L 284.34375 87.011719 L 285.941406 87.011719 L 287.328125 89.597656 C 287.378906 89.652344 287.378906 89.808594 287.488281 89.863281 C 287.539062 89.914062 287.539062 90.074219 287.648438 90.125 C 287.699219 90.074219 287.699219 89.914062 287.804688 89.863281 C 287.914062 89.808594 287.859375 89.652344 287.964844 89.597656 L 289.457031 87.011719 L 290.898438 87.011719 L 288.445312 90.863281 Z M 290.898438 94.929688 " fill-opacity="1" fill-rule="nonzero"/><g clip-path="url(#899af693e5)"><path fill="#FFFFFF" d="M 297.023438 88.171875 L 294.789062 88.171875 L 294.789062 94.929688 L 293.453125 94.929688 L 293.453125 88.171875 L 291.21875 88.171875 L 291.21875 87.117188 L 297.078125 87.117188 L 297.078125 88.171875 Z M 297.023438 88.171875 " fill-opacity="1" fill-rule="nonzero"/></g></svg>