<svg xmlns="http://www.w3.org/2000/svg" xmlns:xlink="http://www.w3.org/1999/xlink" width="420" zoomAndPan="magnify" viewBox="0 0 315 165.000002" height="220" preserveAspectRatio="xMidYMid meet" version="1.0"><defs><clipPath id="ff0e0694d7"><path d="M 18 41.996094 L 97 41.996094 L 97 120 L 18 120 Z M 18 41.996094 " clip-rule="nonzero"/></clipPath></defs><g clip-path="url(#ff0e0694d7)"><path fill="#34d59a" d="M 96.128906 42.019531 L 96.128906 119.992188 L 65.902344 93.847656 L 65.902344 119.992188 L 18.664062 119.992188 L 18.664062 41.996094 Z M 28.160156 110.523438 L 56.410156 110.523438 L 56.410156 73.074219 L 86.636719 99.734375 L 86.636719 51.480469 L 28.160156 51.464844 Z M 28.160156 110.523438 " fill-opacity="1" fill-rule="nonzero"/></g><path fill="#000000" d="M 158.511719 105.285156 L 128.441406 78.75 L 128.441406 104.765625 L 118.980469 104.765625 L 118.980469 58.070312 L 149.054688 84.605469 L 149.054688 58.589844 L 158.511719 58.589844 Z M 168.925781 104.765625 L 168.925781 58.589844 L 197.238281 58.589844 L 197.238281 67.890625 L 178.386719 67.890625 L 178.386719 76.996094 L 193.324219 76.996094 L 193.324219 86.101562 L 178.386719 86.101562 L 178.386719 95.464844 L 197.238281 95.464844 L 197.238281 104.765625 Z M 226.523438 105.285156 C 213.410156 105.285156 202.839844 94.75 202.839844 81.675781 C 202.839844 68.605469 213.410156 58.070312 226.523438 58.070312 C 239.632812 58.070312 250.203125 68.605469 250.203125 81.675781 C 250.203125 94.75 239.632812 105.285156 226.523438 105.285156 Z M 226.523438 96.179688 C 234.609375 96.179688 240.679688 89.675781 240.679688 81.675781 C 240.679688 73.679688 234.609375 67.175781 226.523438 67.175781 C 218.433594 67.175781 212.367188 73.679688 212.367188 81.675781 C 212.367188 89.675781 218.433594 96.179688 226.523438 96.179688 Z M 296.171875 105.285156 L 266.101562 78.75 L 266.101562 104.765625 L 256.640625 104.765625 L 256.640625 58.070312 L 286.714844 84.605469 L 286.714844 58.589844 L 296.171875 58.589844 Z M 296.171875 105.285156 " fill-opacity="1" fill-rule="nonzero"/><path fill="#ffffff" d="M 158.511719 105.285156 L 128.441406 78.75 L 128.441406 104.765625 L 118.980469 104.765625 L 118.980469 58.070312 L 149.054688 84.605469 L 149.054688 58.589844 L 158.511719 58.589844 Z M 168.925781 104.765625 L 168.925781 58.589844 L 197.238281 58.589844 L 197.238281 67.890625 L 178.386719 67.890625 L 178.386719 76.996094 L 193.324219 76.996094 L 193.324219 86.101562 L 178.386719 86.101562 L 178.386719 95.464844 L 197.238281 95.464844 L 197.238281 104.765625 Z M 226.523438 105.285156 C 213.410156 105.285156 202.839844 94.75 202.839844 81.675781 C 202.839844 68.605469 213.410156 58.070312 226.523438 58.070312 C 239.632812 58.070312 250.203125 68.605469 250.203125 81.675781 C 250.203125 94.75 239.632812 105.285156 226.523438 105.285156 Z M 226.523438 96.179688 C 234.609375 96.179688 240.679688 89.675781 240.679688 81.675781 C 240.679688 73.679688 234.609375 67.175781 226.523438 67.175781 C 218.433594 67.175781 212.367188 73.679688 212.367188 81.675781 C 212.367188 89.675781 218.433594 96.179688 226.523438 96.179688 Z M 296.171875 105.285156 L 266.101562 78.75 L 266.101562 104.765625 L 256.640625 104.765625 L 256.640625 58.070312 L 286.714844 84.605469 L 286.714844 58.589844 L 296.171875 58.589844 Z M 296.171875 105.285156 " fill-opacity="1" fill-rule="nonzero"/></svg>